<!-- Created with Inkscape (http://www.inkscape.org/) -->
<svg xmlns:rdf="http://www.w3.org/1999/02/22-rdf-syntax-ns#" xmlns="http://www.w3.org/2000/svg" height="26" width="26" version="1.1" xmlns:cc="http://creativecommons.org/ns#" xmlns:dc="http://purl.org/dc/elements/1.1/">
 <metadata>
  <rdf:RDF>
   <cc:Work rdf:about="">
    <dc:format>image/svg+xml</dc:format>
    <dc:type rdf:resource="http://purl.org/dc/dcmitype/StillImage"/>
    <dc:title/>
   </cc:Work>
  </rdf:RDF>
 </metadata>
 <g transform="translate(0,-1025.3622)">
  <path stroke-linejoin="miter" style="enable-background:accumulate;color:#000000;" d="M6,20.5c2-5.5,3-11.5,3-19h8c0,7.5,1,13.5,3,19z" stroke-dashoffset="0" transform="translate(0,1026.3622)" stroke="#000" stroke-linecap="butt" stroke-miterlimit="4" stroke-dasharray="none" stroke-width="1" fill="#FFF"/>
  <path stroke-linejoin="miter" d="m10,19.5a3.5,3.5,0,1,1,-7,0,3.5,3.5,0,1,1,7,0z" stroke-dashoffset="0" transform="matrix(0.71428572,0,0,0.71428572,1.3571428,1032.4336)" stroke="#000" stroke-linecap="square" stroke-miterlimit="4" stroke-dasharray="none" stroke-width="1.39999998" fill="#FFF"/>
  <path stroke-linejoin="miter" d="m10,19.5a3.5,3.5,0,1,1,-7,0,3.5,3.5,0,1,1,7,0z" stroke-dashoffset="0" transform="matrix(0.7142856,0,0,0.7142856,15.357144,1032.4336)" stroke="#000" stroke-linecap="square" stroke-miterlimit="4" stroke-dasharray="none" stroke-width="1.40000021" fill="#FFF"/>
  <path stroke-linejoin="miter" style="enable-background:accumulate;color:#000000;" d="m6.5,1044,13,0" stroke-dashoffset="0" stroke="#000" stroke-linecap="butt" stroke-miterlimit="4" stroke-dasharray="none" stroke-width="1" fill="none"/>
  <path fill="#666" d="m7,20a1,1,0,1,1,-2,0,1,1,0,1,1,2,0z" transform="translate(0,1026.3622)"/>
  <path fill="#666" d="m7,20a1,1,0,1,1,-2,0,1,1,0,1,1,2,0z" transform="translate(14,1026.3622)"/>
 </g>
 <path d="m14,5a1,1,0,1,1,-2,0,1,1,0,1,1,2,0z" transform="matrix(1.5,0,0,1.5,-6.5,-2)" fill="#000"/>
</svg>
